<svg width="158" height="32" viewBox="0 0 158 32" fill="none" xmlns="http://www.w3.org/2000/svg">
<g clip-path="url(#clip0_1388_2653)">
<path d="M118.48 4.5608C118.48 4.13467 118.607 3.71811 118.844 3.3638C119.08 3.00948 119.417 2.73333 119.811 2.57026C120.204 2.40718 120.637 2.36452 121.055 2.44765C121.473 2.53078 121.857 2.73598 122.159 3.0373C122.46 3.33862 122.665 3.72252 122.748 4.14047C122.831 4.55841 122.789 4.99161 122.626 5.38531C122.462 5.779 122.186 6.11549 121.832 6.35224C121.478 6.58898 121.061 6.71534 120.635 6.71534C120.066 6.70881 119.521 6.47972 119.119 6.07707C118.716 5.67442 118.487 5.13019 118.48 4.5608Z" fill="#FBB516"/>
<path d="M92.2773 4.5608C92.2848 3.99169 92.5142 3.44798 92.9166 3.04553C93.3191 2.64307 93.8628 2.41369 94.4319 2.40625C95.0062 2.40625 95.5569 2.63438 95.963 3.04046C96.3691 3.44653 96.5972 3.99729 96.5972 4.57157C96.5972 5.14585 96.3691 5.6966 95.963 6.10268C95.5569 6.50876 95.0062 6.73689 94.4319 6.73689C93.8591 6.72935 93.3122 6.49699 92.9091 6.08991C92.5061 5.68283 92.2792 5.13365 92.2773 4.5608Z" fill="#FBB516"/>
<path d="M55.801 4.5608C55.8085 3.99169 56.0379 3.44798 56.4403 3.04553C56.8428 2.64307 57.3865 2.41369 57.9556 2.40625C58.5298 2.40625 59.0806 2.63438 59.4867 3.04046C59.8928 3.44653 60.1209 3.99729 60.1209 4.57157C60.1209 5.14585 59.8928 5.6966 59.4867 6.10268C59.0806 6.50876 58.5298 6.73689 57.9556 6.73689C57.3828 6.72935 56.8359 6.49699 56.4328 6.08991C56.0298 5.68283 55.8029 5.13365 55.801 4.5608Z" fill="#FBB516"/>
<path d="M59.7329 8.69531H56.2354V24.779H59.7329V8.69531Z" fill="white"/>
<path d="M73.0626 8.28125C71.9895 8.29025 70.9305 8.52624 69.9551 8.9737C68.9797 9.42116 68.1101 10.07 67.4033 10.8775V8.69061H63.9058V24.7779H67.4033V13.5527C67.8817 12.9024 68.5026 12.3702 69.2183 11.9968C69.9341 11.6233 70.7258 11.4186 71.5329 11.3982C73.4971 11.3982 74.7647 12.2313 74.7647 14.7305V24.7851H78.2622V13.4522C78.2586 10.1557 76.535 8.28125 73.0626 8.28125Z" fill="white"/>
<path d="M86.7832 8.68913V7.79141C86.7832 5.99595 87.6486 5.09463 89.0131 5.09463C89.5057 5.06839 89.9944 5.19371 90.4136 5.45373L91.1784 2.85391C90.3141 2.4153 89.3535 2.20048 88.3847 2.22909C85.4222 2.22909 83.2892 4.19332 83.2892 7.79141V8.68913H80.6248V11.7522H83.2892V24.7764H86.7868V11.7522H92.7153V24.7764H96.2129V8.68913H86.7832Z" fill="white"/>
<path d="M109.614 8.28125C108.541 8.29066 107.481 8.52681 106.505 8.97422C105.53 9.42164 104.659 10.0702 103.951 10.8775V8.69061H100.454V24.7779H103.951V13.5527C104.43 12.9026 105.051 12.3706 105.767 11.9971C106.482 11.6237 107.274 11.4188 108.081 11.3982C110.045 11.3982 111.313 12.2313 111.313 14.7305V24.7851H114.807V13.4522C114.807 10.1557 113.076 8.28125 109.614 8.28125Z" fill="white"/>
<path d="M122.409 8.69531H118.911V24.779H122.409V8.69531Z" fill="white"/>
<path d="M132.384 22.0791C131.386 22.0791 130.855 21.2819 130.855 20.1831V11.7552H134.119V8.69215H130.855V4.29688H127.357V8.69215H124.693V11.7552H127.357V21.0485C127.357 23.7129 128.793 25.178 131.487 25.178C133.117 25.178 134.151 24.7435 134.783 24.1438L133.95 21.5153C133.519 21.8953 132.959 22.0969 132.384 22.0791Z" fill="white"/>
<path d="M148.78 8.69531L144.083 20.75L139.376 8.69531H135.659L142.249 24.9801L141.451 26.8115C140.985 27.8887 140.252 28.2119 139.153 28.2119C138.696 28.2066 138.245 28.1165 137.821 27.9462L137.286 31.0739C137.932 31.2168 138.592 31.295 139.254 31.3073C141.753 31.2678 143.685 30.4095 144.784 27.6769L152.544 8.69531H148.78Z" fill="white"/>
<path d="M157.952 10.7892C157.952 11.0828 157.896 11.3606 157.785 11.6225C157.674 11.8843 157.521 12.1145 157.327 12.3129C157.132 12.5073 156.902 12.662 156.636 12.7771C156.374 12.8922 156.093 12.9497 155.791 12.9497C155.49 12.9497 155.208 12.8942 154.946 12.7831C154.684 12.668 154.456 12.5133 154.262 12.3188C154.071 12.1244 153.92 11.8963 153.809 11.6344C153.698 11.3725 153.643 11.0947 153.643 10.8011C153.643 10.5075 153.698 10.2298 153.809 9.96787C153.92 9.70599 154.073 9.47784 154.268 9.28342C154.462 9.08502 154.69 8.92829 154.952 8.81323C155.218 8.69816 155.502 8.64062 155.803 8.64062C156.105 8.64062 156.386 8.69816 156.648 8.81323C156.91 8.92433 157.136 9.07709 157.327 9.27151C157.521 9.46594 157.674 9.69409 157.785 9.95597C157.896 10.2178 157.952 10.4956 157.952 10.7892ZM157.726 10.7892C157.726 10.5234 157.676 10.2734 157.577 10.0393C157.481 9.80122 157.347 9.59489 157.172 9.42031C157.001 9.24572 156.799 9.10883 156.565 9.00964C156.331 8.90647 156.077 8.85489 155.803 8.85489C155.529 8.85489 155.273 8.90647 155.035 9.00964C154.801 9.1128 154.597 9.25167 154.422 9.42626C154.252 9.60085 154.117 9.80717 154.018 10.0452C153.918 10.2833 153.869 10.5353 153.869 10.8011C153.869 11.0709 153.916 11.3229 154.012 11.557C154.111 11.7911 154.246 11.9954 154.416 12.17C154.591 12.3446 154.795 12.4835 155.029 12.5867C155.263 12.6859 155.517 12.7355 155.791 12.7355C156.065 12.7355 156.319 12.6839 156.553 12.5807C156.791 12.4775 156.995 12.3387 157.166 12.1641C157.341 11.9895 157.478 11.7852 157.577 11.551C157.676 11.313 157.726 11.059 157.726 10.7892ZM156.803 10.325C156.803 10.5115 156.753 10.6622 156.654 10.7773C156.559 10.8884 156.434 10.9658 156.279 11.0094L156.886 11.8605H156.374L155.827 11.0809H155.357V11.8605H154.928V9.60481H155.934C156.196 9.60481 156.406 9.6683 156.565 9.79527C156.724 9.92224 156.803 10.0988 156.803 10.325ZM156.363 10.3488C156.363 10.2337 156.323 10.1464 156.244 10.0869C156.164 10.0234 156.055 9.99168 155.916 9.99168H155.357V10.7059H155.916C156.055 10.7059 156.164 10.6742 156.244 10.6107C156.323 10.5472 156.363 10.4599 156.363 10.3488Z" fill="white"/>
<path d="M44.734 7.59111L46.1129 9.10289L49.1616 6.32711C47.9678 4.60936 46.3774 3.20488 44.5251 2.23281C42.6729 1.26075 40.6135 0.749775 38.5217 0.743249C35.3624 0.735571 32.319 1.93239 30.0112 4.08998C27.6628 6.24452 25.9032 9.20702 24.1688 12.0762C22.6283 14.6473 21.034 17.3081 19.0805 19.2831C17.5292 20.8523 15.3962 21.6423 12.739 21.6423C10.5114 21.6423 8.37503 20.7574 6.79989 19.1823C5.22474 17.6071 4.33984 15.4708 4.33984 13.2432C4.33984 11.0156 5.22474 8.87926 6.79989 7.30412C8.37503 5.72897 10.5114 4.84407 12.739 4.84407C16.6567 4.84407 19.278 7.7168 20.2009 8.91257L22.4452 5.29293C21.108 3.66122 19.3799 2.39405 17.4217 1.6092C15.4635 0.824349 13.3386 0.547288 11.2446 0.803769C9.1506 1.06025 7.15541 1.84195 5.44449 3.07621C3.73357 4.31047 2.36244 5.95723 1.45855 7.86344C0.554659 9.76965 0.147338 11.8734 0.274447 13.9793C0.401555 16.0851 1.05897 18.1246 2.18558 19.9082C3.3122 21.6919 4.87144 23.1618 6.71841 24.1813C8.56537 25.2008 10.6401 25.7368 12.7497 25.7396C16.4879 25.7396 19.6838 24.5043 21.9999 22.1487C24.3161 19.793 26.0146 16.9634 27.6987 14.184C29.3828 11.4047 30.8874 8.8623 32.8086 7.10275C33.6215 6.34408 34.577 5.75438 35.6196 5.36786C36.6623 4.98135 37.7713 4.80571 38.8823 4.85114C39.9933 4.89657 41.0843 5.16216 42.0919 5.63251C43.0995 6.10286 44.0036 6.7686 44.7519 7.59111H44.734Z" fill="#FBB516"/>
<path d="M37.5663 12.1436V16.2408H46.3712L46.2635 16.503C45.623 18.0275 44.5458 19.3286 43.1675 20.2423C41.7893 21.156 40.1715 21.6416 38.5179 21.6379C37.4406 21.6379 35.7205 21.2789 33.4906 19.4834C32.7584 18.897 32.0762 18.2508 31.451 17.5515L29.1743 21.2609C30.388 22.6973 33.5696 25.7352 38.5107 25.7352C41.6229 25.7965 44.6438 24.6822 46.9709 22.6147C48.9195 20.9267 50.2813 18.6633 50.8598 16.151C51.1914 14.8391 51.2935 13.4796 51.1615 12.1328L37.5663 12.1436Z" fill="#FBB516"/>
</g>
<defs>
<clipPath id="clip0_1388_2653">
<rect width="158" height="31.2409" fill="white" transform="translate(0 0.382812)"/>
</clipPath>
</defs>
</svg>
